#!OML:ASF Y:\EmotionMaleHayes\Project 1\Capture day 1\Session 1\Male1.ASF
:FULLY-SPECIFIED
:DEGREES
36
root -29.4858 17.0179 1.18057 40.7414 86.0567 41.2486
lowerback 5.41235 1.68777 -5.47921
upperback 0.726934 1.9379 -0.235055
thorax -2.45761 1.02347 2.68313
lowerneck -21.614 2.26532 2.90089
upperneck 25.2859 2.69646 -0.891627
head 11.9526 1.46021 -0.357968
rclavicle -9.44538e-015 1.73937e-016
rhumerus -35.0229 6.72419 -90.0356
rradius 30.4905
rwrist 4.4038
rhand -10.1848 -31.6205
rfingers 7.12502
rthumb 15.8057 -60.9952
lclavicle -9.44538e-015 1.73937e-016
lhumerus -31.9871 -8.29424 91.6861
lradius 23.4053
lwrist -15.66
lhand -18.5745 -27.324
lfingers 7.12502
lthumb 7.71582 2.51521
rfemur 9.5566 -3.12182 8.59414
rtibia 2.44551
rfoot -15.4347 -4.13132
rtoes -1.73078
lfemur 12.4047 -1.09726 -15.4282
ltibia -2.32166
lfoot -12.0742 13.6189
ltoes -8.59702
37
root -29.4851 17.0158 1.18074 41.0898 86.0107 41.542
lowerback 5.32366 1.71514 -5.491
upperback 0.72879 1.9786 -0.282944
thorax -2.4083 1.04252 2.63941
lowerneck -21.682 2.25977 2.91226
upperneck 25.2647 2.64647 -0.780332
head 11.9552 1.45276 -0.326001
rclavicle 6.7416e-015 1.87355e-014
rhumerus -35.0384 6.63358 -90.0406
rradius 30.5509
rwrist 4.39574
rhand -10.1446 -31.715
rfingers 7.12502
rthumb 15.8444 -61.0867
lclavicle 6.7416e-015 1.87355e-014
lhumerus -32.0325 -8.62662 91.754
lradius 23.498
lwrist -15.3954
lhand -18.6202 -27.3794
lfingers 7.12502
lthumb 7.67174 2.4614
rfemur 9.48841 -3.17993 8.5204
rtibia 2.4681
rfoot -15.5291 -4.06672
rtoes -1.9415
lfemur 12.4505 -1.44848 -15.6236
ltibia -2.51424
lfoot -12.1167 13.9578
ltoes -8.32081
38
root -29.4832 17.0145 1.17971 39.6431 86.0361 40.0889
lowerback 5.29053 1.72929 -5.39583
upperback 0.732631 2.00548 -0.249889
thorax -2.38607 1.05437 2.61918
lowerneck -21.6878 2.28139 2.92362
upperneck 25.2777 2.68655 -0.823672
head 11.9631 1.46608 -0.337338
rclavicle -1.51527e-014 4.27387e-015
rhumerus -35.0893 6.59245 -90.0174
rradius 30.6126
rwrist 4.42092
rhand -10.1036 -31.7203
rfingers 7.12502
rthumb 15.8839 -61.0888
lclavicle -1.51527e-014 4.27387e-015
lhumerus -32.0744 -8.65817 91.7928
lradius 23.5461
lwrist -15.3603
lhand -18.4381 -27.477
lfingers 7.12502
lthumb 7.84746 2.3574
rfemur 9.4998 -3.26191 8.59387
rtibia 2.44175
rfoot -15.5669 -3.91754
rtoes -1.67923
lfemur 12.4947 -1.30381 -15.4596
ltibia -2.5941
lfoot -11.9747 13.8258
ltoes -8.60937
39
root -29.4839 17.0146 1.17893 38.5902 86.1377 39.0756
lowerback 5.35643 1.72384 -5.25174
upperback 0.740821 2.00297 -0.229717
thorax -2.4101 1.05225 2.55788
lowerneck -21.6437 2.24137 2.94616
upperneck 25.2402 2.64821 -0.911836
head 11.9407 1.43928 -0.381134
rclavicle 6.60183e-015 1.59525e-014
rhumerus -35.0787 6.5052 -90.0076
rradius 30.5825
rwrist 4.44304
rhand -10.1191 -31.6112
rfingers 7.12502
rthumb 15.869 -60.981
lclavicle 6.60183e-015 1.59525e-014
lhumerus -32.053 -8.60638 91.7559
lradius 23.5251
lwrist -15.4831
lhand -18.1645 -27.5491
lfingers 7.12502
lthumb 8.11156 2.27521
rfemur 9.58922 -3.37629 8.68607
rtibia 2.37005
rfoot -15.5085 -3.82945
rtoes -1.72245
lfemur 12.5206 -1.28104 -15.2858
ltibia -2.58288
lfoot -11.9974 13.7026
ltoes -8.2779
40
root -29.4865 17.0155 1.17896 38.0442 86.2287 38.5845
lowerback 5.46297 1.73599 -5.12826
upperback 0.750377 2.02015 -0.23886
thorax -2.45671 1.06063 2.47509
lowerneck -21.6723 2.24274 3.00587
upperneck 25.2119 2.62491 -0.908568
head 11.9358 1.43435 -0.393672
rclavicle 2.03288e-014 -1.93815e-015
rhumerus -35.0401 6.39354 -90.0064
rradius 30.5275
rwrist 4.48998
rhand -10.114 -31.6265
rfingers 7.12502
rthumb 15.8739 -60.9958
lclavicle 2.03288e-014 -1.93815e-015
lhumerus -31.9884 -8.4735 91.6517
lradius 23.4622
lwrist -15.7323
lhand -18.4435 -27.5854
lfingers 7.12502
lthumb 7.84227 2.24915
rfemur 9.63282 -3.47348 8.74551
rtibia 2.39722
rfoot -15.5573 -3.82039
rtoes -3.17134
lfemur 12.5352 -1.41956 -15.1961
ltibia -2.54963
lfoot -12.1619 13.7058
ltoes -7.32194
41
root -29.4867 17.015 1.18013 37.3776 86.2625 37.9669
lowerback 5.55907 1.74665 -5.07568
upperback 0.740363 2.03152 -0.228523
thorax -2.52037 1.06741 2.45247
lowerneck -21.704 2.25587 3.01444
upperneck 25.2611 2.63293 -0.87998
head 11.9611 1.44308 -0.382463
rclavicle -1.89777e-015 -1.37658e-014
rhumerus -35.0937 6.40159 -90.0234
rradius 30.5586
rwrist 4.45222
rhand -10.1132 -31.785
rfingers 7.12502
rthumb 15.8747 -61.1543
lclavicle -1.89777e-015 -1.37658e-014
lhumerus -32.0069 -8.39316 91.6096
lradius 23.4436
lwrist -15.8161
lhand -18.7151 -27.5918
lfingers 7.12502
lthumb 7.58017 2.2524
rfemur 9.62256 -3.54777 8.79664
rtibia 2.51345
rfoot -15.6755 -3.73432
rtoes -4.90457
lfemur 12.5325 -1.26022 -15.0561
ltibia -2.45382
lfoot -12.2025 13.5496
ltoes -6.89311
42
root -29.4842 17.0143 1.18006 37.0766 86.2488 37.6956
lowerback 5.6219 1.7284 -5.10324
upperback 0.716024 2.00157 -0.189198
thorax -2.58068 1.05454 2.50881
lowerneck -21.7126 2.2721 2.94097
upperneck 25.2987 2.67998 -0.867597
head 11.977 1.45901 -0.357416
rclavicle 1.29055e-014 4.07509e-015
rhumerus -35.1513 6.48867 -90.0027
rradius 30.5583
rwrist 4.40345
rhand -10.0742 -31.8086
rfingers 7.12502
rthumb 15.9122 -61.1748
lclavicle 1.29055e-014 4.07509e-015
lhumerus -32.073 -8.33722 91.6519
lradius 23.4521
lwrist -15.7353
lhand -18.3743 -27.5759
lfingers 7.12502
lthumb 7.90906 2.25619
rfemur 9.60741 -3.53518 8.80864
rtibia 2.62157
rfoot -15.8515 -3.60813
rtoes -5.35532
lfemur 12.5369 -1.07768 -14.994
ltibia -2.3288
lfoot -12.3421 13.3489
ltoes -6.62129
43
root -29.484 17.0159 1.17846 36.9888 86.2796 37.6714
lowerback 5.74829 1.68087 -5.10433
upperback 0.696326 1.93102 -0.137132
thorax -2.66789 1.02185 2.56544
lowerneck -21.6889 2.28309 2.90159
upperneck 25.3585 2.74098 -0.957907
head 11.9976 1.4714 -0.374391
rclavicle -1.14829e-014 -5.61567e-015
rhumerus -35.2043 6.62795 -89.9853
rradius 30.5379
rwrist 4.42438
rhand -10.0468 -31.5887
rfingers 7.12502
rthumb 15.9385 -60.9528
lclavicle -1.14829e-014 -5.61567e-015
lhumerus -32.2778 -8.60698 91.8396
lradius 23.6821
lwrist -15.2655
lhand -18.0155 -27.3647
lfingers 7.12502
lthumb 8.25539 2.454
rfemur 9.64787 -3.4631 8.83915
rtibia 2.69248
rfoot -16.1406 -3.63578
rtoes -5.47646
lfemur 12.5994 -1.16549 -14.9905
ltibia -2.28743
lfoot -12.6136 13.3258
ltoes -6.36458
44
root -29.483 17.0138 1.17765 38.9852 86.1751 39.7325
lowerback 5.88415 1.66933 -5.29277
upperback 0.656463 1.89378 -0.157013
thorax -2.78763 1.00886 2.64933
lowerneck -21.6302 2.26244 2.97401
upperneck 25.4912 2.7633 -1.18144
head 12.043 1.46138 -0.466399
rclavicle 7.06384e-015 1.56543e-014
rhumerus -35.3397 6.69298 -89.9908
rradius 30.5741
rwrist 4.4623
rhand -10.0719 -31.4795
rfingers 7.12502
rthumb 15.9144 -60.8456
lclavicle 7.06384e-015 1.56543e-014
lhumerus -32.382 -8.35027 91.7982
lradius 23.7256
lwrist -15.4152
lhand -17.9518 -27.3985
lfingers 7.12502
lthumb 8.31688 2.41773
rfemur 9.68364 -3.53908 8.59166
rtibia 2.77741
rfoot -16.3272 -3.54425
rtoes -6.10341
lfemur 12.6565 -1.1761 -15.2021
ltibia -2.24937
lfoot -12.7732 13.3189
ltoes -6.55039
45
root -29.4791 17.0088 1.1779 42.2333 85.9512 43.0202
lowerback 5.95256 1.69468 -5.62167
upperback 0.622472 1.89911 -0.244315
thorax -2.86943 1.01788 2.74023
lowerneck -21.5903 2.31959 2.96248
upperneck 25.355 2.80506 -1.05247
head 11.9808 1.49464 -0.410249
rclavicle -3.48883e-015 -3.47873e-016
rhumerus -35.4403 6.59349 -89.9755
rradius 30.5707
rwrist 4.55182
rhand -10.1399 -31.4891
rfingers 7.12502
rthumb 15.8489 -60.8604
lclavicle -3.48883e-015 -3.47873e-016
lhumerus -32.5931 -8.77942 91.9885
lradius 23.9511
lwrist -14.8556
lhand -17.9711 -27.4259
lfingers 7.12502
lthumb 8.29824 2.39116
rfemur 9.69651 -3.44151 8.24932
rtibia 2.82819
rfoot -16.4693 -3.52207
rtoes -6.1204
lfemur 12.662 -1.04304 -15.5582
ltibia -2.11837
lfoot -12.8326 13.1706
ltoes -6.76334
